<svg viewBox="0 0 24 24" fill="none" xmlns="http://www.w3.org/2000/svg">
    <path fill-rule="evenodd" clip-rule="evenodd" d="M20 5.8686C20 4.27121 18.2197 3.31842 16.8906 4.2045L7.69338 10.336C6.50591 11.1276 6.50591 12.8725 7.69337 13.6642L16.8906 19.7957C18.2197 20.6817 20 19.729 20 18.1316V5.8686ZM8.80278 12.0001L18 5.8686L18 18.1316L8.80278 12.0001ZM5 5.00002C5 4.44773 4.55228 4.00002 4 4.00002C3.44772 4.00002 3 4.44774 3 5.00002V19C3 19.5523 3.44772 20 4 20C4.55229 20 5 19.5523 5 19L5 5.00002Z" fill="white"/>
</svg>
