<svg viewBox="0 0 24 24" fill="none" xmlns="http://www.w3.org/2000/svg">
    <path fill-rule="evenodd" clip-rule="evenodd" d="M8.367 3.25L8.4 3.25L11.6 3.25L11.633 3.25L11.633 3.25C12.7252 3.25 13.5906 3.24999 14.2883 3.30699C15.0017 3.36528 15.6053 3.48688 16.1565 3.76772C17.0502 4.22312 17.7769 4.94978 18.2323 5.84355C18.4921 6.35347 18.6156 6.90828 18.6788 7.55337L19.95 6.59997C21.1036 5.7347 22.75 6.55786 22.75 7.99995L22.75 16C22.75 17.4421 21.1037 18.2653 19.95 17.4L18.6788 16.4466C18.6156 17.0917 18.4921 17.6465 18.2323 18.1565C17.7769 19.0502 17.0502 19.7769 16.1565 20.2323C15.6053 20.5131 15.0017 20.6347 14.2883 20.693C13.5906 20.75 12.7252 20.75 11.633 20.75L11.6 20.75L8.4 20.75L8.36698 20.75C7.27484 20.75 6.40935 20.75 5.71173 20.693C4.99834 20.6347 4.39472 20.5131 3.84355 20.2323C2.94978 19.7769 2.22312 19.0502 1.76772 18.1565C1.48688 17.6053 1.36527 17.0017 1.30699 16.2883C1.24999 15.5907 1.24999 14.7252 1.25 13.6331L1.25 13.633L1.25 13.6L1.25 10.4L1.25 10.367L1.25 10.367C1.24999 9.27483 1.24999 8.40935 1.30699 7.71174C1.36527 6.99835 1.48688 6.39472 1.76772 5.84355C2.22312 4.94978 2.94978 4.22312 3.84355 3.76772C4.39472 3.48688 4.99834 3.36528 5.71173 3.30699C6.40935 3.24999 7.27483 3.25 8.36695 3.25L8.367 3.25ZM18.75 13.6895L18.75 13.6973L18.75 13.7057L18.75 13.714L18.75 13.7223L18.75 13.7306L18.75 13.7388L18.75 13.747L18.75 13.7553L18.75 13.7635L18.75 13.7716L18.75 13.7798L18.75 13.7879L18.75 13.796L18.75 13.8041L18.75 13.8122L18.75 13.8202L18.75 13.8283L18.75 13.8363L18.75 13.8442L18.75 13.8522L18.75 13.8602L18.75 13.8681L18.75 13.876L18.75 13.8839L18.75 13.8917L18.75 13.8995L18.75 13.9074L18.75 13.9151L18.75 13.9229L18.75 13.9307L18.75 13.9384L18.75 13.9461L18.75 13.9538L18.75 13.9614L18.75 13.9691L18.75 13.9767L18.75 13.9843L18.75 13.9918L18.75 13.9994L18.75 14.0069L18.75 14.0144L18.75 14.0219L18.75 14.0293L18.75 14.0368L18.75 14.0442L18.75 14.0516L18.75 14.0589L18.75 14.0663L18.75 14.0736L18.75 14.0809L18.75 14.0882L18.75 14.0954L18.75 14.1026L18.75 14.1098L18.75 14.117L18.75 14.1241L18.75 14.1313L18.75 14.1384L18.75 14.1455L18.75 14.1525L18.75 14.1596L18.75 14.1666L18.75 14.1735L18.75 14.1805L18.75 14.1874L18.75 14.1944L18.75 14.2012L18.75 14.2081L18.75 14.2149L18.75 14.2218L18.75 14.2285L18.75 14.2353L18.75 14.242L18.75 14.2488L18.75 14.2554L18.75 14.2621L18.75 14.2687L18.75 14.2754L18.75 14.2819L18.75 14.2885L18.75 14.295L18.75 14.3016L18.75 14.308L18.75 14.3145L18.75 14.3209L18.75 14.3274L18.75 14.3337L18.75 14.3401L18.75 14.3464L18.75 14.3527L18.75 14.359L18.75 14.3653L18.75 14.3715L18.75 14.3777L18.75 14.3839L18.75 14.39L18.75 14.3961L18.75 14.4022L18.75 14.4083L18.75 14.4143L18.75 14.4204L18.75 14.4263L18.75 14.4323L18.75 14.4382L18.75 14.4441L18.75 14.45L18.75 14.4559L18.75 14.4617L18.75 14.4675L18.75 14.4733L18.75 14.479L18.75 14.4847L18.75 14.4904L18.75 14.4961L18.75 14.5017C18.75 14.579 18.7859 14.652 18.85 14.7L20.85 16.2C21.0148 16.3236 21.25 16.206 21.25 16L21.25 7.99995C21.25 7.79394 21.0148 7.67635 20.85 7.79996L18.85 9.3C18.787 9.34725 18.75 9.4213 18.75 9.49993L18.75 9.51089L18.75 9.52185L18.75 9.53283L18.75 9.54381L18.75 9.55479L18.75 9.56579L18.75 9.57679L18.75 9.58779L18.75 9.59881L18.75 9.60982L18.75 9.62085L18.75 9.63188L18.75 9.64292L18.75 9.65396L18.75 9.66501L18.75 9.67607L18.75 9.68713L18.75 9.6982L18.75 9.70927L18.75 9.72035L18.75 9.73143L18.75 9.74252L18.75 9.75362L18.75 9.76472L18.75 9.77582L18.75 9.78693L18.75 9.79805L18.75 9.80917L18.75 9.8203L18.75 9.83143L18.75 9.84257L18.75 9.85371L18.75 9.86485L18.75 9.876L18.75 9.88716L18.75 9.89832L18.75 9.90948L18.75 9.92065L18.75 9.93182L18.75 9.943L18.75 9.95418L18.75 9.96537L18.75 9.97656L18.75 9.98775L18.75 9.99895L18.75 10.0102L18.75 10.0214L18.75 10.0326L18.75 10.0438L18.75 10.055L18.75 10.0662L18.75 10.0774L18.75 10.0887L18.75 10.0999L18.75 10.1111L18.75 10.1224L18.75 10.1336L18.75 10.1448L18.75 10.1561L18.75 10.1673L18.75 10.1786L18.75 10.1898L18.75 10.2011L18.75 10.2124L18.75 10.2236L18.75 10.2349L18.75 10.2462L18.75 10.2523C18.75 10.2902 18.75 10.3285 18.75 10.367L18.75 10.3702L18.75 10.3815L18.75 10.3928L18.75 10.4L18.75 10.4041L18.75 10.4154L18.75 10.4267L18.75 10.438L18.75 10.4493L18.75 10.4606L18.75 10.4719L18.75 10.4832L18.75 10.4945L18.75 10.5058L18.75 10.5171L18.75 10.5285L18.75 10.5398L18.75 10.5511L18.75 10.5624L18.75 10.5737L18.75 10.585L18.75 10.5963L18.75 10.6076L18.75 10.6189L18.75 10.6302L18.75 10.6415L18.75 10.6529L18.75 10.6642L18.75 10.6755L18.75 10.6868L18.75 10.6981L18.75 10.7094L18.75 10.7207L18.75 10.732L18.75 10.7433L18.75 10.7546L18.75 10.766L18.75 10.7773L18.75 10.7886L18.75 10.7999L18.75 10.8112L18.75 10.8225L18.75 10.8338L18.75 10.8451L18.75 10.8564L18.75 10.8677L18.75 10.879L18.75 10.8903L18.75 10.9016L18.75 10.9129L18.75 10.9242L18.75 10.9354L18.75 10.9467L18.75 10.958L18.75 10.9693L18.75 10.9806L18.75 10.9919L18.75 11.0031L18.75 11.0144L18.75 11.0257L18.75 11.037L18.75 11.0482L18.75 11.0595L18.75 11.0708L18.75 11.082L18.75 11.0933L18.75 11.1045L18.75 11.1158L18.75 11.127L18.75 11.1383L18.75 11.1495L18.75 11.1608L18.75 11.172L18.75 11.1833L18.75 11.1945L18.75 11.2057L18.75 11.2169L18.75 11.2282L18.75 11.2394L18.75 11.2506L18.75 11.2618L18.75 11.273L18.75 11.2842L18.75 11.2954L18.75 11.3066L18.75 11.3178L18.75 11.329L18.75 11.3402L18.75 11.3514L18.75 11.3625L18.75 11.3737L18.75 11.3849L18.75 11.396L18.75 11.4072L18.75 11.4183L18.75 11.4295L18.75 11.4406L18.75 11.4518L18.75 11.4629L18.75 11.474L18.75 11.4852L18.75 11.4963L18.75 11.5074L18.75 11.5185L18.75 11.5296L18.75 11.5407L18.75 11.5518L18.75 11.5629L18.75 11.574L18.75 11.585L18.75 11.5961L18.75 11.6072L18.75 11.6182L18.75 11.6293L18.75 11.6403L18.75 11.6514L18.75 11.6624L18.75 11.6734L18.75 11.6845L18.75 11.6955L18.75 11.7065L18.75 11.7175L18.75 11.7285L18.75 11.7395L18.75 11.7505L18.75 11.7614L18.75 11.7724L18.75 11.7834L18.75 11.7943L18.75 11.8053L18.75 11.8162L18.75 11.8272L18.75 11.8381L18.75 11.849L18.75 11.8599L18.75 11.8708L18.75 11.8817L18.75 11.8926L18.75 11.9035L18.75 11.9144L18.75 11.9253L18.75 11.9361L18.75 11.947L18.75 11.9578L18.75 11.9687L18.75 11.9795L18.75 11.9903L18.75 12.0011L18.75 12.0119L18.75 12.0227L18.75 12.0335L18.75 12.0443L18.75 12.0551L18.75 12.0658L18.75 12.0766L18.75 12.0873L18.75 12.098L18.75 12.1088L18.75 12.1195L18.75 12.1302L18.75 12.1409L18.75 12.1516L18.75 12.1623L18.75 12.173L18.75 12.1836L18.75 12.1943L18.75 12.2049L18.75 12.2155L18.75 12.2262L18.75 12.2368L18.75 12.2474L18.75 12.258L18.75 12.2686L18.75 12.2792L18.75 12.2897L18.75 12.3003L18.75 12.3108L18.75 12.3214L18.75 12.3319L18.75 12.3424L18.75 12.3529L18.75 12.3634L18.75 12.3739L18.75 12.3844L18.75 12.3948L18.75 12.4053L18.75 12.4157L18.75 12.4261L18.75 12.4366L18.75 12.447L18.75 12.4574L18.75 12.4677L18.75 12.4781L18.75 12.4885L18.75 12.4988L18.75 12.5092L18.75 12.5195L18.75 12.5298L18.75 12.5401L18.75 12.5504L18.75 12.5607L18.75 12.571L18.75 12.5812L18.75 12.5915L18.75 12.6017L18.75 12.6119L18.75 12.6221L18.75 12.6323L18.75 12.6425L18.75 12.6527L18.75 12.6629L18.75 12.673L18.75 12.6831L18.75 12.6933L18.75 12.7034L18.75 12.7135L18.75 12.7236L18.75 12.7336L18.75 12.7437L18.75 12.7537L18.75 12.7638L18.75 12.7738L18.75 12.7838L18.75 12.7938L18.75 12.8038L18.75 12.8137L18.75 12.8237L18.75 12.8336L18.75 12.8435L18.75 12.8534L18.75 12.8633L18.75 12.8732L18.75 12.8831L18.75 12.893L18.75 12.9028L18.75 12.9126L18.75 12.9224L18.75 12.9322L18.75 12.942L18.75 12.9518L18.75 12.9615L18.75 12.9713L18.75 12.981L18.75 12.9907L18.75 13.0004L18.75 13.0101L18.75 13.0198L18.75 13.0294L18.75 13.039L18.75 13.0487L18.75 13.0583L18.75 13.0679L18.75 13.0774L18.75 13.087L18.75 13.0965L18.75 13.1061L18.75 13.1156L18.75 13.1251L18.75 13.1346L18.75 13.144L18.75 13.1535L18.75 13.1629L18.75 13.1723L18.75 13.1817L18.75 13.1911L18.75 13.2005L18.75 13.2099L18.75 13.2192L18.75 13.2285L18.75 13.2378L18.75 13.2471L18.75 13.2564L18.75 13.2656L18.75 13.2749L18.75 13.2841L18.75 13.2933L18.75 13.3025L18.75 13.3117L18.75 13.3208L18.75 13.33L18.75 13.3391L18.75 13.3482L18.75 13.3573L18.75 13.3663L18.75 13.3754L18.75 13.3844L18.75 13.3934L18.75 13.4024L18.75 13.4114L18.75 13.4204L18.75 13.4293L18.75 13.4382L18.75 13.4471L18.75 13.456L18.75 13.4649L18.75 13.4738L18.75 13.4826L18.75 13.4914L18.75 13.5002L18.75 13.509L18.75 13.5178L18.75 13.5265L18.75 13.5352L18.75 13.5439L18.75 13.5526L18.75 13.5613L18.75 13.5699L18.75 13.5786L18.75 13.5872L18.75 13.5958L18.75 13.6L18.75 13.6043L18.75 13.6129L18.75 13.6214L18.75 13.6299L18.75 13.633L18.75 13.6384L18.75 13.6469L18.75 13.6554L18.75 13.6638L18.75 13.6722L18.75 13.6806L18.75 13.689" fill="white"/>
</svg>
