<svg viewBox="0 0 24 24" fill="none" xmlns="http://www.w3.org/2000/svg">
    <path fill-rule="evenodd" clip-rule="evenodd" d="M5.2 2.99998L5.16146 2.99998L5.16145 2.99998C4.63431 2.99996 4.17955 2.99995 3.80497 3.03055C3.40963 3.06285 3.01641 3.13417 2.63803 3.32696C2.07354 3.61458 1.6146 4.07352 1.32698 4.63801C1.13419 5.01639 1.06287 5.40961 1.03057 5.80495C0.999968 6.17951 0.999983 6.63426 1 7.16139L1 7.16144L1 7.19998L1 16.8L1 16.8385C0.999983 17.3657 0.999968 17.8204 1.03057 18.195C1.06287 18.5904 1.13419 18.9836 1.32698 19.362C1.6146 19.9264 2.07354 20.3854 2.63803 20.673C3.01641 20.8658 3.40963 20.9371 3.80497 20.9694C4.17954 21 4.6343 21 5.16144 21L5.2 21L14.8 21L14.8386 21C15.3657 21 15.8205 21 16.195 20.9694C16.5904 20.9371 16.9836 20.8658 17.362 20.673C17.9265 20.3854 18.3854 19.9264 18.673 19.362C18.8658 18.9836 18.9371 18.5904 18.9694 18.195C18.9969 17.8592 18.9997 17.459 19 17L19.8 17.6C21.1185 18.5888 23 17.6481 23 16L23 7.99993C23 6.35183 21.1184 5.41107 19.8 6.39995L19 6.99997C18.9997 6.54094 18.9969 6.14073 18.9694 5.80495C18.9371 5.40961 18.8658 5.01639 18.673 4.63801C18.3854 4.07352 17.9265 3.61458 17.362 3.32696C16.9836 3.13417 16.5904 3.06285 16.195 3.03055C15.8205 2.99995 15.3657 2.99996 14.8386 2.99998L14.8385 2.99998L14.8 2.99998L5.2 2.99998ZM19 9.49998L19 9.51087L19 9.52183L19 9.5328L19 9.54378L19 9.55477L19 9.56576L19 9.57676L19 9.58777L19 9.59878L19 9.6098L19 9.62083L19 9.63186L19 9.6429L19 9.65394L19 9.66499L19 9.67605L19 9.68711L19 9.69817L19 9.70925L19 9.72033L19 9.73141L19 9.7425L19 9.75359L19 9.76469L19 9.7758L19 9.78691L19 9.79803L19 9.80915L19 9.82028L19 9.83141L19 9.84254L19 9.85368L19 9.86483L19 9.87598L19 9.88714L19 9.8983L19 9.90946L19 9.92063L19 9.9318L19 9.94298L19 9.95416L19 9.96535L19 9.97654L19 9.98773L19 9.99893L19 10.0101L19 10.0213L19 10.0325L19 10.0438L19 10.055L19 10.0662L19 10.0774L19 10.0886L19 10.0999L19 10.1111L19 10.1223L19 10.1336L19 10.1448L19 10.1561L19 10.1673L19 10.1786L19 10.1898L19 10.2011L19 10.2123L19 10.2236L19 10.2349L19 10.2461L19 10.2574L19 10.2687L19 10.28L19 10.2912L19 10.3025L19 10.3138L19 10.3251L19 10.3364L19 10.3476L19 10.3589L19 10.3702L19 10.3815L19 10.3928L19 10.4041L19 10.4154L19 10.4267L19 10.438L19 10.4493L19 10.4606L19 10.4719L19 10.4832L19 10.4945L19 10.5058L19 10.5171L19 10.5284L19 10.5397L19 10.551L19 10.5624L19 10.5737L19 10.585L19 10.5963L19 10.6076L19 10.6189L19 10.6302L19 10.6415L19 10.6528L19 10.6641L19 10.6755L19 10.6868L19 10.6981L19 10.7094L19 10.7207L19 10.732L19 10.7433L19 10.7546L19 10.7659L19 10.7772L19 10.7885L19 10.7999L19 10.8112L19 10.8225L19 10.8338L19 10.8451L19 10.8564L19 10.8677L19 10.879L19 10.8903L19 10.9015L19 10.9128L19 10.9241L19 10.9354L19 10.9467L19 10.958L19 10.9693L19 10.9806L19 10.9918L19 11.0031L19 11.0144L19 11.0257L19 11.0369L19 11.0482L19 11.0595L19 11.0707L19 11.082L19 11.0933L19 11.1045L19 11.1158L19 11.127L19 11.1383L19 11.1495L19 11.1608L19 11.172L19 11.1832L19 11.1945L19 11.2057L19 11.2169L19 11.2281L19 11.2394L19 11.2506L19 11.2618L19 11.273L19 11.2842L19 11.2954L19 11.3066L19 11.3178L19 11.329L19 11.3402L19 11.3513L19 11.3625L19 11.3737L19 11.3848L19 11.396L19 11.4072L19 11.4183L19 11.4295L19 11.4406L19 11.4518L19 11.4629L19 11.474L19 11.4851L19 11.4963L19 11.5074L19 11.5185L19 11.5296L19 11.5407L19 11.5518L19 11.5629L19 11.5739L19 11.585L19 11.5961L19 11.6072L19 11.6182L19 11.6293L19 11.6403L19 11.6514L19 11.6624L19 11.6734L19 11.6844L19 11.6955L19 11.7065L19 11.7175L19 11.7285L19 11.7395L19 11.7504L19 11.7614L19 11.7724L19 11.7834L19 11.7943L19 11.8053L19 11.8162L19 11.8271L19 11.8381L19 11.849L19 11.8599L19 11.8708L19 11.8817L19 11.8926L19 11.9035L19 11.9144L19 11.9252L19 11.9361L19 11.9469L19 11.9578L19 11.9686L19 11.9795L19 11.9903L19 12.0011L19 12.0119L19 12.0227L19 12.0335L19 12.0443L19 12.055L19 12.0658L19 12.0765L19 12.0873L19 12.098L19 12.1088L19 12.1195L19 12.1302L19 12.1409L19 12.1516L19 12.1623L19 12.1729L19 12.1836L19 12.1942L19 12.2049L19 12.2155L19 12.2261L19 12.2368L19 12.2474L19 12.258L19 12.2686L19 12.2791L19 12.2897L19 12.3003L19 12.3108L19 12.3213L19 12.3319L19 12.3424L19 12.3529L19 12.3634L19 12.3739L19 12.3843L19 12.3948L19 12.4052L19 12.4157L19 12.4261L19 12.4365L19 12.4469L19 12.4573L19 12.4677L19 12.4781L19 12.4885L19 12.4988L19 12.5092L19 12.5195L19 12.5298L19 12.5401L19 12.5504L19 12.5607L19 12.5709L19 12.5812L19 12.5915L19 12.6017L19 12.6119L19 12.6221L19 12.6323L19 12.6425L19 12.6527L19 12.6628L19 12.673L19 12.6831L19 12.6932L19 12.7034L19 12.7134L19 12.7235L19 12.7336L19 12.7437L19 12.7537L19 12.7637L19 12.7738L19 12.7838L19 12.7938L19 12.8037L19 12.8137L19 12.8237L19 12.8336L19 12.8435L19 12.8534L19 12.8633L19 12.8732L19 12.8831L19 12.8929L19 12.9028L19 12.9126L19 12.9224L19 12.9322L19 12.942L19 12.9518L19 12.9615L19 12.9713L19 12.981L19 12.9907L19 13.0004L19 13.0101L19 13.0197L19 13.0294L19 13.039L19 13.0486L19 13.0583L19 13.0678L19 13.0774L19 13.087L19 13.0965L19 13.1061L19 13.1156L19 13.1251L19 13.1346L19 13.144L19 13.1535L19 13.1629L19 13.1723L19 13.1817L19 13.1911L19 13.2005L19 13.2098L19 13.2192L19 13.2285L19 13.2378L19 13.2471L19 13.2564L19 13.2656L19 13.2749L19 13.2841L19 13.2933L19 13.3025L19 13.3116L19 13.3208L19 13.3299L19 13.3391L19 13.3482L19 13.3572L19 13.3663L19 13.3754L19 13.3844L19 13.3934L19 13.4024L19 13.4114L19 13.4203L19 13.4293L19 13.4382L19 13.4471L19 13.456L19 13.4649L19 13.4737L19 13.4826L19 13.4914L19 13.5002L19 13.509L19 13.5177L19 13.5265L19 13.5352L19 13.5439L19 13.5526L19 13.5613L19 13.5699L19 13.5785L19 13.5871L19 13.5957L19 13.6043L19 13.6129L19 13.6214L19 13.6299L19 13.6384L19 13.6469L19 13.6553L19 13.6638L19 13.6722L19 13.6806L19 13.689L19 13.6973L19 13.7057L19 13.714L19 13.7223L19 13.7305L19 13.7388L19 13.747L19 13.7552L19 13.7634L19 13.7716L19 13.7798L19 13.7879L19 13.796L19 13.8041L19 13.8122L19 13.8202L19 13.8282L19 13.8362L19 13.8442L19 13.8522L19 13.8601L19 13.8681L19 13.876L19 13.8838L19 13.8917L19 13.8995L19 13.9073L19 13.9151L19 13.9229L19 13.9306L19 13.9384L19 13.9461L19 13.9537L19 13.9614L19 13.969L19 13.9767L19 13.9842L19 13.9918L19 13.9994L19 14.0069L19 14.0144L19 14.0219L19 14.0293L19 14.0368L19 14.0442L19 14.0515L19 14.0589L19 14.0662L19 14.0736L19 14.0809L19 14.0881L19 14.0954L19 14.1026L19 14.1098L19 14.117L19 14.1241L19 14.1313L19 14.1384L19 14.1454L19 14.1525L19 14.1595L19 14.1665L19 14.1735L19 14.1805L19 14.1874L19 14.1943L19 14.2012L19 14.2081L19 14.2149L19 14.2217L19 14.2285L19 14.2353L19 14.242L19 14.2487L19 14.2554L19 14.2621L19 14.2687L19 14.2753L19 14.2819L19 14.2885L19 14.295L19 14.3015L19 14.308L19 14.3145L19 14.3209L19 14.3273L19 14.3337L19 14.3401L19 14.3464L19 14.3527L19 14.359L19 14.3652L19 14.3715L19 14.3777L19 14.3838L19 14.39L19 14.3961L19 14.4022L19 14.4083L19 14.4143L19 14.4203L19 14.4263L19 14.4323L19 14.4382L19 14.4441L19 14.45L19 14.4559L19 14.4617L19 14.4675L19 14.4732L19 14.479L19 14.4847L19 14.4904L19 14.4961L19 14.5L21 16L21 7.99993L19 9.49998ZM17 9.49855L17 7.19998C17 6.62343 16.9992 6.25115 16.9761 5.96782C16.9539 5.69615 16.9162 5.59543 16.891 5.54599C16.7951 5.35783 16.6422 5.20485 16.454 5.10897C16.4045 5.08378 16.3038 5.0461 16.0322 5.02391C15.7488 5.00076 15.3766 4.99998 14.8 4.99998L5.2 4.99998C4.62345 4.99998 4.25117 5.00076 3.96784 5.02391C3.69617 5.0461 3.59546 5.08378 3.54601 5.10897C3.35785 5.20485 3.20487 5.35783 3.109 5.54599C3.0838 5.59543 3.04612 5.69615 3.02393 5.96782C3.00078 6.25115 3 6.62343 3 7.19998L3 16.8C3 17.3765 3.00078 17.7488 3.02393 18.0321C3.04612 18.3038 3.0838 18.4045 3.109 18.454C3.20487 18.6421 3.35785 18.7951 3.54601 18.891C3.59546 18.9162 3.69617 18.9539 3.96784 18.9761C4.25117 18.9992 4.62345 19 5.2 19L14.8 19C15.3766 19 15.7488 18.9992 16.0322 18.9761C16.3038 18.9539 16.4045 18.9162 16.454 18.891C16.6422 18.7951 16.7951 18.6421 16.891 18.454C16.9162 18.4045 16.9539 18.3038 16.9761 18.0321C16.9992 17.7488 17 17.3765 17 16.8L17 14.5017L17 14.4961L17 14.4904L17 14.4847L17 14.479L17 14.4732L17 14.4675L17 14.4617L17 14.4559L17 14.45L17 14.4441L17 14.4382L17 14.4323L17 14.4263L17 14.4203L17 14.4143L17 14.4083L17 14.4022L17 14.3961L17 14.39L17 14.3838L17 14.3777L17 14.3715L17 14.3652L17 14.359L17 14.3527L17 14.3464L17 14.3401L17 14.3337L17 14.3273L17 14.3209L17 14.3145L17 14.308L17 14.3015L17 14.295L17 14.2885L17 14.2819L17 14.2753L17 14.2687L17 14.2621L17 14.2554L17 14.2487L17 14.242L17 14.2353L17 14.2285L17 14.2217L17 14.2149L17 14.2081L17 14.2012L17 14.1943L17 14.1874L17 14.1805L17 14.1735L17 14.1665L17 14.1595L17 14.1525L17 14.1454L17 14.1384L17 14.1313L17 14.1241L17 14.117L17 14.1098L17 14.1026L17 14.0954L17 14.0881L17 14.0809L17 14.0736L17 14.0662L17 14.0589L17 14.0515L17 14.0442L17 14.0367L17 14.0293L17 14.0219L17 14.0144L17 14.0069L17 13.9994L17 13.9918L17 13.9842L17 13.9767L17 13.969L17 13.9614L17 13.9537L17 13.9461L17 13.9384L17 13.9306L17 13.9229L17 13.9151L17 13.9073L17 13.8995L17 13.8917L17 13.8838L17 13.876L17 13.8681L17 13.8601L17 13.8522L17 13.8442L17 13.8362L17 13.8282L17 13.8202L17 13.8122L17 13.8041L17 13.796L17 13.7879L17 13.7798L17 13.7716L17 13.7634L17 13.7552L17 13.747L17 13.7388L17 13.7305L17 13.7223L17 13.714L17 13.7057L17 13.6973L17 13.689L17 13.6806L17 13.6722L17 13.6638L17 13.6553L17 13.6469L17 13.6384L17 13.6299L17 13.6214L17 13.6129L17 13.6043L17 13.5957L17 13.5871L17 13.5785L17 13.5699L17 13.5613L17 13.5526L17 13.5439L17 13.5352L17 13.5265L17 13.5177L17 13.509L17 13.5002L17 13.4914L17 13.4826L17 13.4737L17 13.4649L17 13.456L17 13.4471L17 13.4382L17 13.4293L17 13.4203L17 13.4114L17 13.4024L17 13.3934L17 13.3844L17 13.3754L17 13.3663L17 13.3572L17 13.3482L17 13.3391L17 13.3299L17 13.3208L17 13.3116L17 13.3025L17 13.2933L17 13.2841L17 13.2749L17 13.2656L17 13.2564L17 13.2471L17 13.2378L17 13.2285L17 13.2192L17 13.2098L17 13.2005L17 13.1911L17 13.1817L17 13.1723L17 13.1629L17 13.1535L17 13.144L17 13.1346L17 13.1251L17 13.1156L17 13.1061L17 13.0965L17 13.087L17 13.0774L17 13.0678L17 13.0583L17 13.0486L17 13.039L17 13.0294L17 13.0197L17 13.0101L17 13.0004L17 12.9907L17 12.981L17 12.9713L17 12.9615L17 12.9518L17 12.942L17 12.9322L17 12.9224L17 12.9126L17 12.9028L17 12.8929L17 12.8831L17 12.8732L17 12.8633L17 12.8534L17 12.8435L17 12.8336L17 12.8237L17 12.8137L17 12.8037L17 12.7938L17 12.7838L17 12.7738L17 12.7637L17 12.7537L17 12.7437L17 12.7336L17 12.7235L17 12.7134L17 12.7034L17 12.6932L17 12.6831L17 12.673L17 12.6628L17 12.6527L17 12.6425L17 12.6323L17 12.6221L17 12.6119L17 12.6017L17 12.5915L17 12.5812L17 12.5709L17 12.5607L17 12.5504L17 12.5401L17 12.5298L17 12.5195L17 12.5092L17 12.4988L17 12.4885L17 12.4781L17 12.4677L17 12.4573L17 12.4469L17 12.4365L17 12.4261L17 12.4157L17 12.4052L17 12.3948L17 12.3843L17 12.3739L17 12.3634L17 12.3529L17 12.3424L17 12.3319L17 12.3213L17 12.3108L17 12.3003L17 12.2897L17 12.2791L17 12.2686L17 12.258L17 12.2474L17 12.2368L17 12.2261L17 12.2155L17 12.2049L17 12.1942L17 12.1836L17 12.1729L17 12.1623L17 12.1516L17 12.1409L17 12.1302L17 12.1195L17 12.1088L17 12.098L17 12.0873L17 12.0765L17 12.0658L17 12.055L17 12.0443L17 12.0335L17 12.0227L17 12.0119L17 12.0011L17 11.9903L17 11.9795L17 11.9686L17 11.9578L17 11.9469L17 11.9361L17 11.9252L17 11.9144L17 11.9035L17 11.8926L17 11.8817L17 11.8708L17 11.8599L17 11.849L17 11.8381L17 11.8271L17 11.8162L17 11.8053L17 11.7943L17 11.7834L17 11.7724L17 11.7614L17 11.7504L17 11.7395L17 11.7285L17 11.7175L17 11.7065L17 11.6955L17 11.6844L17 11.6734L17 11.6624L17 11.6514L17 11.6403L17 11.6293L17 11.6182L17 11.6072L17 11.5961L17 11.585L17 11.5739L17 11.5629L17 11.5518L17 11.5407L17 11.5296L17 11.5185L17 11.5074L17 11.4963L17 11.4851L17 11.474L17 11.4629L17 11.4518L17 11.4406L17 11.4295L17 11.4183L17 11.4072L17 11.396L17 11.3848L17 11.3737L17 11.3625L17 11.3513L17 11.3402L17 11.329L17 11.3178L17 11.3066L17 11.2954L17 11.2842L17 11.273L17 11.2618L17 11.2506L17 11.2394L17 11.2281L17 11.2169L17 11.2057L17 11.1945L17 11.1832L17 11.172L17 11.1608L17 11.1495L17 11.1383L17 11.127L17 11.1158L17 11.1045L17 11.0933L17 11.082L17 11.0707L17 11.0595L17 11.0482L17 11.0369L17 11.0257L17 11.0144L17 11.0031L17 10.9918L17 10.9806L17 10.9693L17 10.958L17 10.9467L17 10.9354L17 10.9241L17 10.9128L17 10.9015L17 10.8903L17 10.879L17 10.8677L17 10.8564L17 10.8451L17 10.8338L17 10.8225L17 10.8112L17 10.7999L17 10.7885L17 10.7772L17 10.7659L17 10.7546L17 10.7433L17 10.732L17 10.7207L17 10.7094L17 10.6981L17 10.6868L17 10.6755L17 10.6641L17 10.6528L17 10.6415L17 10.6302L17 10.6189L17 10.6076L17 10.5963L17 10.585L17 10.5737L17 10.5624L17 10.551L17 10.5397L17 10.5284L17 10.5171L17 10.5058L17 10.4945L17 10.4832L17 10.4719L17 10.4606L17 10.4493L17 10.438L17 10.4267L17 10.4154L17 10.4041L17 10.3928L17 10.3815L17 10.3702L17 10.3589L17 10.3476L17 10.3364L17 10.3251L17 10.3138L17 10.3025L17 10.2912L17 10.28L17 10.2687L17 10.2574L17 10.2461L17 10.2349L17 10.2236L17 10.2123L17 10.2011L17 10.1898L17 10.1786L17 10.1673L17 10.1561L17 10.1448L17 10.1336L17 10.1223L17 10.1111L17 10.0999L17 10.0886L17 10.0774L17 10.0662L17 10.055L17 10.0438L17 10.0325L17 10.0213L17 10.0101L17 9.99893L17 9.98773L17 9.97654L17 9.96535L17 9.95416L17 9.94298L17 9.9318L17 9.92063L17 9.90946L17 9.8983L17 9.88714L17 9.87598L17 9.86483L17 9.85368L17 9.84254L17 9.83141L17 9.82028L17 9.80915L17 9.79803L17 9.78691L17 9.7758L17 9.7647L17 9.75359L17 9.7425L17 9.73141L17 9.72033L17 9.70925L17 9.69817L17 9.68711L17 9.67605L17 9.66499L17 9.65394L17 9.6429L17 9.63186L17 9.62083L17 9.6098L17 9.59878L17 9.58777L17 9.57676L17 9.56576L17 9.55477L17 9.54378L17 9.5328L17 9.52183L17 9.51087L17 9.49991C17 9.49945 17 9.499 17 9.49855Z" fill="currentColor"/>
</svg>
