<svg viewBox="0 0 24 24" fill="none" xmlns="http://www.w3.org/2000/svg">
    <path fill-rule="evenodd" clip-rule="evenodd" d="M12 4C7.58172 4 4 7.58172 4 12C4 12.9384 4.22952 13.9113 4.54364 14.7945L4.55021 14.813L4.55023 14.813C4.80773 15.5371 5.00948 16.1043 5.1493 16.5423C5.28399 16.9642 5.39334 17.3597 5.41513 17.7061C5.43109 17.96 5.43782 18.1966 5.40643 18.4502C5.37504 18.7038 5.31083 18.9316 5.23345 19.1739C5.14326 19.4564 5.00626 19.725 4.84399 20H12C16.4183 20 20 16.4183 20 12C20 7.58172 16.4183 4 12 4ZM2 12C2 6.47715 6.47715 2 12 2C17.5229 2 22 6.47715 22 12C22 17.5228 17.5229 22 12 22H3C2.63121 22 2.29235 21.797 2.11833 21.4719C1.94431 21.1467 1.96338 20.7522 2.16795 20.4453L2.39291 20.1079C2.70719 19.6364 2.92461 19.3099 3.08118 19.0511C3.23773 18.7923 3.29974 18.6548 3.32823 18.5655C3.39461 18.3577 3.41336 18.2709 3.42157 18.2045C3.42979 18.1382 3.43276 18.0494 3.41907 17.8317C3.41443 17.7578 3.37903 17.5734 3.24404 17.1505C3.11538 16.7475 2.92476 16.2112 2.65927 15.4647C2.29983 14.4541 2 13.2443 2 12ZM7 10C7 9.44772 7.44772 9 8 9H16C16.5523 9 17 9.44772 17 10C17 10.5523 16.5523 11 16 11H8C7.44772 11 7 10.5523 7 10ZM8 13C7.44772 13 7 13.4477 7 14C7 14.5523 7.44772 15 8 15H12C12.5523 15 13 14.5523 13 14C13 13.4477 12.5523 13 12 13H8Z" fill="white"/>
</svg>
