<svg viewBox="0 0 24 24" fill="none" xmlns="http://www.w3.org/2000/svg">
    <path fill-rule="evenodd" clip-rule="evenodd" d="M7.7587 3L7.8 3H11C11.5523 3 12 3.44772 12 4C12 4.55229 11.5523 5 11 5H7.8C6.94342 5 6.36113 5.00078 5.91104 5.03755C5.47262 5.07337 5.24842 5.1383 5.09202 5.21799C4.7157 5.40973 4.40973 5.7157 4.21799 6.09202C4.1383 6.24842 4.07337 6.47262 4.03755 6.91104C4.00078 7.36113 4 7.94342 4 8.8V13.2C4 14.0566 4.00078 14.6389 4.03755 15.089C4.07337 15.5274 4.1383 15.7516 4.21799 15.908C4.40973 16.2843 4.7157 16.5903 5.09202 16.782C5.24842 16.8617 5.47262 16.9266 5.91104 16.9624C6.36113 16.9992 6.94342 17 7.8 17H15.4892C15.511 17 15.5326 17 15.5539 17C16.0555 16.9999 16.4029 16.9998 16.749 17.0483C17.0553 17.0912 17.357 17.1624 17.6502 17.261C17.9813 17.3724 18.2921 17.5279 18.7406 17.7523C18.7597 17.7618 18.779 17.7715 18.7985 17.7812L20 18.382V14C20 13.4477 20.4477 13 21 13C21.5523 13 22 13.4477 22 14V20C22 20.3466 21.8205 20.6684 21.5257 20.8507C21.2309 21.0329 20.8628 21.0494 20.5528 20.8944L17.9041 19.5701C17.3763 19.3062 17.1954 19.2182 17.0124 19.1566C16.8365 19.0974 16.6555 19.0547 16.4717 19.029C16.2805 19.0022 16.0793 19 15.4892 19H7.8H7.75873C6.95374 19 6.28938 19 5.74818 18.9558C5.18608 18.9099 4.66937 18.8113 4.18404 18.564C3.43139 18.1805 2.81947 17.5686 2.43597 16.816C2.18868 16.3306 2.09012 15.8139 2.04419 15.2518C1.99998 14.7106 1.99999 14.0463 2 13.2413L2 13.2V8.8L2 8.7587C1.99999 7.95373 1.99998 7.28937 2.04419 6.74818C2.09012 6.18608 2.18868 5.66937 2.43597 5.18404C2.81947 4.43139 3.43139 3.81947 4.18404 3.43597C4.66937 3.18868 5.18608 3.09012 5.74817 3.04419C6.28937 2.99998 6.95373 2.99999 7.7587 3Z" fill="white"/>
    <path fill-rule="evenodd" clip-rule="evenodd" d="M18.3274 4.08839C18.7088 3.7417 19.2912 3.7417 19.6727 4.08839C19.6858 4.10038 19.7051 4.11924 19.7929 4.20705C19.8807 4.29485 19.8996 4.31413 19.9116 4.32731C20.2583 4.70872 20.2583 5.29116 19.9116 5.67257C19.8996 5.68576 19.8807 5.70503 19.7929 5.79283L19.5598 6.02593C18.7023 5.9945 18.0055 5.29771 17.974 4.44014L18.2071 4.20705C18.2949 4.11924 18.3142 4.10038 18.3274 4.08839ZM16.3735 6.04066L13.9606 8.45356C13.4718 8.94234 13.3073 9.11109 13.176 9.29386C13.0497 9.46955 12.9427 9.65839 12.8571 9.85708C12.7679 10.0638 12.7079 10.2916 12.5402 10.9622L12.3744 11.6256L13.0377 11.4597C13.7083 11.2921 13.9362 11.232 14.1429 11.1429C14.3416 11.0572 14.5304 10.9503 14.7061 10.824C14.8889 10.6926 15.0576 10.5281 15.5464 10.0393L17.9593 7.62645C17.2803 7.27675 16.7232 6.71968 16.3735 6.04066ZM21.0179 2.60843C19.8737 1.56835 18.1264 1.56835 16.9821 2.60843C16.9287 2.657 16.8726 2.7131 16.8074 2.77838L16.8073 2.77845L16.7929 2.79283L12.5464 7.03935L12.4926 7.09309C12.0775 7.50811 11.7899 7.7956 11.552 8.12646C11.3415 8.41929 11.1633 8.73402 11.0205 9.06518C10.8592 9.43936 10.7606 9.83389 10.6184 10.4034L10.6184 10.4034L10.5999 10.4772L10.0299 12.7574C9.94469 13.0982 10.0445 13.4587 10.2929 13.707C10.5413 13.9554 10.9018 14.0553 11.2426 13.9701L13.5228 13.4L13.5965 13.3816L13.5966 13.3816C14.1661 13.2393 14.5606 13.1408 14.9348 12.9794C15.2659 12.8366 15.5807 12.6584 15.8735 12.448C16.2044 12.2101 16.4919 11.9225 16.9069 11.5073L16.9606 11.4536L21.2071 7.20705L21.2216 7.19261C21.2869 7.12734 21.343 7.07126 21.3915 7.01783C22.4316 5.8736 22.4316 4.12628 21.3915 2.98205C21.343 2.92861 21.2868 2.87252 21.2215 2.80724L21.2071 2.79284L21.1927 2.77843C21.1274 2.71313 21.0714 2.65701 21.0179 2.60843Z" fill="white"/>
</svg>
