<svg viewBox="0 0 24 24" fill="none" xmlns="http://www.w3.org/2000/svg">
    <path fill-rule="evenodd" clip-rule="evenodd" d="M3 18.2663C3 19.8637 4.7803 20.8165 6.1094 19.9304L15.3066 13.7989C16.4941 13.0073 16.4941 11.2624 15.3066 10.4707L6.1094 4.33925C4.7803 3.45325 3 4.40595 3 6.00335L3 18.2663ZM14.1972 12.1348L5 18.2663L5 6.00335L14.1972 12.1348ZM18 19.1349C18 19.6872 18.4477 20.1349 19 20.1349C19.5523 20.1349 20 19.6872 20 19.1349L20 5.13495C20 4.58265 19.5523 4.13495 19 4.13495C18.4477 4.13495 18 4.58265 18 5.13495L18 19.1349Z" fill="white"/>
</svg>
