<svg viewBox="0 0 24 24" fill="none" xmlns="http://www.w3.org/2000/svg">
    <path fill-rule="evenodd" clip-rule="evenodd" d="M10.2592 7.14976C8.80041 5.65776 6.3998 5.65776 4.94096 7.14976C3.52776 8.59508 3.52776 10.9045 4.94096 12.3499L12.0001 19.5694L19.0592 12.3499C20.4724 10.9045 20.4724 8.59508 19.0592 7.14976C17.6004 5.65776 15.1998 5.65776 13.741 7.14976L12.7151 8.19892C12.527 8.39134 12.2692 8.49981 12.0001 8.49981C11.731 8.49981 11.4732 8.39134 11.2851 8.19892L10.2592 7.14976ZM3.51095 5.75152C5.75431 3.45718 9.4459 3.45718 11.6893 5.75152L12.0001 6.06943L12.3109 5.75152C14.5543 3.45718 18.2459 3.45717 20.4893 5.75152C22.6624 7.9741 22.6624 11.5255 20.4893 13.7481L13.3901 21.0086C12.6275 21.7885 11.3727 21.7885 10.6101 21.0086L3.51095 13.7481C1.33776 11.5255 1.33776 7.9741 3.51095 5.75152Z" fill="currentColor"/>
</svg>
