<svg viewBox="0 0 24 24" fill="none" xmlns="http://www.w3.org/2000/svg">
    <path fill-rule="evenodd" clip-rule="evenodd" d="M12 1C9.79086 1 8 2.79086 8 5V12C8 14.2091 9.79086 16 12 16C14.2091 16 16 14.2091 16 12V5C16 2.79086 14.2091 1 12 1ZM10 5C10 3.89543 10.8954 3 12 3C13.1046 3 14 3.89543 14 5V12C14 13.1046 13.1046 14 12 14C10.8954 14 10 13.1046 10 12V5ZM6 12C6 11.4477 5.55228 11 5 11C4.44772 11 4 11.4477 4 12C4 14.7997 5.13445 16.8339 6.74176 18.149C8.0169 19.1922 9.55774 19.759 11 19.9374V22C11 22.5523 11.4477 23 12 23C12.5523 23 13 22.5523 13 22V19.9374C14.4423 19.759 15.9831 19.1922 17.2582 18.149C18.8656 16.8339 20 14.7997 20 12C20 11.4477 19.5523 11 19 11C18.4477 11 18 11.4477 18 12C18 14.2003 17.1344 15.6661 15.9918 16.601C14.8179 17.5615 13.2999 18 12 18C10.7001 18 9.18213 17.5615 8.00824 16.601C6.86555 15.6661 6 14.2003 6 12Z" fill="currentColor"/>
</svg>
