<svg viewBox="0 0 24 24" fill="none" xmlns="http://www.w3.org/2000/svg">
    <path fill-rule="evenodd" clip-rule="evenodd" d="M8.25 5C8.25 2.92893 9.92893 1.25 12 1.25C14.0711 1.25 15.75 2.92893 15.75 5V12C15.75 14.0711 14.0711 15.75 12 15.75C9.92893 15.75 8.25 14.0711 8.25 12V5ZM5.75 12C5.75 11.5858 5.41421 11.25 5 11.25C4.58579 11.25 4.25 11.5858 4.25 12C4.25 14.7248 5.35083 16.6879 6.90007 17.9555C8.19962 19.0187 9.78803 19.5726 11.25 19.7135V22C11.25 22.4142 11.5858 22.75 12 22.75C12.4142 22.75 12.75 22.4142 12.75 22V19.7135C14.212 19.5726 15.8004 19.0187 17.0999 17.9555C18.6492 16.6879 19.75 14.7248 19.75 12C19.75 11.5858 19.4142 11.25 19 11.25C18.5858 11.25 18.25 11.5858 18.25 12C18.25 14.2752 17.3508 15.8121 16.1501 16.7945C14.9259 17.7961 13.3499 18.25 12 18.25C10.6501 18.25 9.07409 17.7961 7.84993 16.7945C6.64917 15.8121 5.75 14.2752 5.75 12Z" fill="white"/>
</svg>
