<svg viewBox="0 0 24 24" fill="none" xmlns="http://www.w3.org/2000/svg">
    <path fill-rule="evenodd" clip-rule="evenodd" d="M12 1C9.79086 1 8 2.79086 8 5V5.5C8 6.05228 8.44772 6.5 9 6.5C9.55228 6.5 10 6.05228 10 5.5V5C10 3.89543 10.8954 3 12 3C13.1046 3 14 3.89543 14 5V11C14 11.5523 14.4477 12 15 12C15.5523 12 16 11.5523 16 11V5C16 2.79086 14.2091 1 12 1ZM3.70711 2.29289C3.31658 1.90237 2.68342 1.90237 2.29289 2.29289C1.90237 2.68342 1.90237 3.31658 2.29289 3.70711L8 9.41421V12C8 14.2091 9.79086 16 12 16H14.5858L15.5282 16.9424C14.4346 17.6664 13.1334 18 12 18C10.7001 18 9.18213 17.5615 8.00824 16.601C6.86555 15.6661 6 14.2003 6 12C6 11.4477 5.55228 11 5 11C4.44772 11 4 11.4477 4 12C4 14.7997 5.13444 16.8339 6.74176 18.149C8.0169 19.1922 9.55774 19.759 11 19.9374V22C11 22.5523 11.4477 23 12 23C12.5523 23 13 22.5523 13 22V19.9374C14.3336 19.7725 15.7504 19.2756 16.9638 18.378L20.2929 21.7071C20.6834 22.0976 21.3166 22.0976 21.7071 21.7071C22.0976 21.3166 22.0976 20.6834 21.7071 20.2929L9.70711 8.29289L3.70711 2.29289ZM10 12V11.4142L12.5858 14H12C10.8954 14 10 13.1046 10 12ZM20 12C20 11.4477 19.5523 11 19 11C18.4477 11 18 11.4477 18 12C18 12.6512 17.9241 13.2332 17.7913 13.7521C17.6544 14.2872 17.9772 14.8319 18.5122 14.9688C19.0473 15.1057 19.592 14.7829 19.7289 14.2479C19.9057 13.557 20 12.8078 20 12Z" fill="#F2F2F2"/>
</svg>
