<svg viewBox="0 0 17 18" fill="none" xmlns="http://www.w3.org/2000/svg">
    <path fill-rule="evenodd" clip-rule="evenodd" d="M3.1094 1.2044C1.78029 0.318323 0 1.27111 0 2.8685V15.1315C0 16.7289 1.78029 17.6816 3.1094 16.7956L12.3066 10.6641C13.4941 9.87244 13.4941 8.12752 12.3066 7.33588L3.1094 1.2044ZM2 2.8685L11.1972 8.99998L2 15.1315V2.8685ZM17 2.00002C17 1.44773 16.5523 1.00002 16 1.00002C15.4477 1.00002 15 1.44773 15 2.00002L15 16C15 16.5523 15.4477 17 16 17C16.5523 17 17 16.5523 17 16V2.00002Z" fill="currentColor"/>
</svg>
