<svg viewBox="0 0 24 24" fill="none" xmlns="http://www.w3.org/2000/svg">
    <path fill-rule="evenodd" clip-rule="evenodd" d="M7 3H6.96802H6.96797C6.52934 2.99999 6.15087 2.99998 5.83762 3.02135C5.50779 3.04386 5.17788 3.09336 4.85195 3.22836C4.11687 3.53285 3.53285 4.11687 3.22836 4.85195C3.09336 5.17788 3.04386 5.50779 3.02135 5.83762C2.99998 6.15087 2.99999 6.52934 3 6.96797V6.96802V7V17V17.032V17.032C2.99999 17.4707 2.99998 17.8491 3.02135 18.1624C3.04386 18.4922 3.09336 18.8221 3.22836 19.1481C3.53285 19.8831 4.11687 20.4672 4.85195 20.7716C5.17788 20.9066 5.50779 20.9561 5.83762 20.9787C6.15088 21 6.52936 21 6.96801 21H7H7.03199C7.47064 21 7.84913 21 8.16238 20.9787C8.49221 20.9561 8.82212 20.9066 9.14805 20.7716C9.88314 20.4672 10.4672 19.8831 10.7716 19.1481C10.9066 18.8221 10.9561 18.4922 10.9787 18.1624C11 17.8491 11 17.4706 11 17.032L11 17V7L11 6.96801C11 6.52936 11 6.15088 10.9787 5.83762C10.9561 5.50779 10.9066 5.17788 10.7716 4.85195C10.4672 4.11687 9.88314 3.53285 9.14805 3.22836C8.82212 3.09336 8.49221 3.04386 8.16238 3.02135C7.84914 2.99998 7.47066 2.99999 7.03203 3H7.03199H7ZM5.61732 5.07612C5.65893 5.05889 5.74576 5.03227 5.97376 5.01671C6.21074 5.00054 6.52038 5 7 5C7.47963 5 7.78926 5.00054 8.02624 5.01671C8.25424 5.03227 8.34107 5.05889 8.38269 5.07612C8.62771 5.17762 8.82239 5.37229 8.92388 5.61732C8.94112 5.65893 8.96774 5.74576 8.98329 5.97376C8.99946 6.21074 9 6.52038 9 7V17C9 17.4796 8.99946 17.7893 8.98329 18.0262C8.96774 18.2542 8.94112 18.3411 8.92388 18.3827C8.82239 18.6277 8.62771 18.8224 8.38269 18.9239C8.34107 18.9411 8.25424 18.9677 8.02624 18.9833C7.78926 18.9995 7.47963 19 7 19C6.52038 19 6.21074 18.9995 5.97376 18.9833C5.74576 18.9677 5.65893 18.9411 5.61732 18.9239C5.37229 18.8224 5.17762 18.6277 5.07612 18.3827C5.05889 18.3411 5.03227 18.2542 5.01671 18.0262C5.00054 17.7893 5 17.4796 5 17V7C5 6.52038 5.00054 6.21074 5.01671 5.97376C5.03227 5.74576 5.05889 5.65893 5.07612 5.61732C5.17762 5.37229 5.37229 5.17762 5.61732 5.07612ZM17 3H16.968H16.968C16.5293 2.99999 16.1509 2.99998 15.8376 3.02135C15.5078 3.04386 15.1779 3.09336 14.852 3.22836C14.1169 3.53285 13.5328 4.11687 13.2284 4.85195C13.0934 5.17788 13.0439 5.50779 13.0214 5.83762C13 6.15088 13 6.52937 13 6.96802L13 7V17L13 17.032C13 17.4706 13 17.8491 13.0214 18.1624C13.0439 18.4922 13.0934 18.8221 13.2284 19.1481C13.5328 19.8831 14.1169 20.4672 14.852 20.7716C15.1779 20.9066 15.5078 20.9561 15.8376 20.9787C16.1509 21 16.5294 21 16.968 21H17H17.032C17.4706 21 17.8491 21 18.1624 20.9787C18.4922 20.9561 18.8221 20.9066 19.1481 20.7716C19.8831 20.4672 20.4672 19.8831 20.7716 19.1481C20.9066 18.8221 20.9561 18.4922 20.9787 18.1624C21 17.8492 21 17.4707 21 17.0321V17.032L21 17V7L21 6.96801V6.96792C21 6.52931 21 6.15085 20.9787 5.83762C20.9561 5.50779 20.9066 5.17788 20.7716 4.85195C20.4672 4.11687 19.8831 3.53285 19.1481 3.22836C18.8221 3.09336 18.4922 3.04386 18.1624 3.02135C17.8491 2.99998 17.4707 2.99999 17.032 3H17.032H17ZM15.6173 5.07612C15.6589 5.05889 15.7458 5.03227 15.9738 5.01671C16.2107 5.00054 16.5204 5 17 5C17.4796 5 17.7893 5.00054 18.0262 5.01671C18.2542 5.03227 18.3411 5.05889 18.3827 5.07612C18.6277 5.17762 18.8224 5.37229 18.9239 5.61732C18.9411 5.65893 18.9677 5.74576 18.9833 5.97376C18.9995 6.21074 19 6.52038 19 7V17C19 17.4796 18.9995 17.7893 18.9833 18.0262C18.9677 18.2542 18.9411 18.3411 18.9239 18.3827C18.8224 18.6277 18.6277 18.8224 18.3827 18.9239C18.3411 18.9411 18.2542 18.9677 18.0262 18.9833C17.7893 18.9995 17.4796 19 17 19C16.5204 19 16.2107 18.9995 15.9738 18.9833C15.7458 18.9677 15.6589 18.9411 15.6173 18.9239C15.3723 18.8224 15.1776 18.6277 15.0761 18.3827C15.0589 18.3411 15.0323 18.2542 15.0167 18.0262C15.0005 17.7893 15 17.4796 15 17V7C15 6.52038 15.0005 6.21074 15.0167 5.97376C15.0323 5.74576 15.0589 5.65893 15.0761 5.61732C15.1776 5.37229 15.3723 5.17762 15.6173 5.07612Z" fill="#1E1D40"/>
</svg>
