<svg viewBox="0 0 24 24" fill="none" xmlns="http://www.w3.org/2000/svg">
    <path fill-rule="evenodd" clip-rule="evenodd" d="M3 4C2.44772 4 2 4.44772 2 5C2 5.55228 2.44772 6 3 6H19C19.5523 6 20 5.55228 20 5C20 4.44772 19.5523 4 19 4H3ZM3 8C2.44772 8 2 8.44772 2 9C2 9.55228 2.44772 10 3 10H15C15.5523 10 16 9.55228 16 9C16 8.44772 15.5523 8 15 8H3ZM2 13C2 12.4477 2.44772 12 3 12H11C11.5523 12 12 12.4477 12 13C12 13.5523 11.5523 14 11 14H3C2.44772 14 2 13.5523 2 13ZM3 16C2.44772 16 2 16.4477 2 17C2 17.5523 2.44772 18 3 18H9C9.55228 18 10 17.5523 10 17C10 16.4477 9.55228 16 9 16H3ZM17 18C16.4477 18 16 18.4477 16 19C16 19.5523 16.4477 20 17 20C17.5523 20 18 19.5523 18 19C18 18.4477 17.5523 18 17 18ZM18 16.1707C17.6872 16.0602 17.3506 16 17 16C15.3431 16 14 17.3431 14 19C14 20.6569 15.3431 22 17 22C18.6569 22 20 20.6569 20 19V12.8685L21.4453 13.8321C21.9048 14.1384 22.5257 14.0142 22.8321 13.5547C23.1384 13.0952 23.0142 12.4743 22.5547 12.1679L19.5547 10.1679C19.2478 9.96338 18.8533 9.94431 18.5281 10.1183C18.203 10.2923 18 10.6312 18 11V16.1707Z" fill="currentColor"/>
</svg>
