<svg viewBox="0 0 24 24" fill="none" xmlns="http://www.w3.org/2000/svg">
    <path fill-rule="evenodd" clip-rule="evenodd" d="M20 5.86855C20 4.27116 18.2197 3.31838 16.8906 4.20445L7.69338 10.3359C6.50591 11.1276 6.50591 12.8725 7.69337 13.6641L16.8906 19.7956C18.2197 20.6817 20 19.7289 20 18.1315V5.86855ZM8.80278 12L18 5.86855L18 18.1315L8.80278 12ZM5 4.99997C5 4.44769 4.55228 3.99997 4 3.99997C3.44772 3.99997 3 4.44769 3 4.99997V19C3 19.5523 3.44772 20 4 20C4.55229 20 5 19.5523 5 19L5 4.99997Z" fill="currentColor"/>
</svg>
