<svg viewBox="0 0 24 24" fill="none" xmlns="http://www.w3.org/2000/svg">
    <path fill-rule="evenodd" clip-rule="evenodd" d="M17 4.76229C17 2.8917 14.6611 2.04489 13.4636 3.48192L10.8315 6.64042C10.6415 6.86842 10.36 7.00024 10.0632 7.00024L7 7.00024C5.34314 7.00024 4 8.34339 4 10.0002L4 14.0002C4 15.6571 5.34314 17.0002 7 17.0002L10.0632 17.0002C10.36 17.0002 10.6415 17.1321 10.8315 17.3601L13.4636 20.5186C14.6611 21.9556 17 21.1088 17 19.2382L17 4.76229ZM12.3679 7.92079L15 4.76229L15 19.2382L12.3679 16.0797C11.7979 15.3957 10.9536 15.0002 10.0632 15.0002L7 15.0002C6.44771 15.0002 6 14.5525 6 14.0002L6 10.0002C6 9.44796 6.44771 9.00024 7 9.00024L10.0632 9.00024C10.9536 9.00024 11.7979 8.60477 12.3679 7.92079ZM19.5554 9.16861C19.0961 8.8619 18.4751 8.98558 18.1684 9.44487C17.8617 9.90415 17.9854 10.5251 18.4446 10.8318C18.7413 11.0299 19 11.4506 19 12.0002C19 12.5499 18.7413 12.9705 18.4446 13.1686C17.9854 13.4753 17.8617 14.0963 18.1684 14.5556C18.4751 15.0149 19.0961 15.1386 19.5554 14.8318C20.4543 14.2315 21 13.1598 21 12.0002C21 10.8406 20.4543 9.76896 19.5554 9.16861Z" fill="#F2F2F2"/>
</svg>
