<svg viewBox="0 0 24 24" fill="none" xmlns="http://www.w3.org/2000/svg">
    <path fill-rule="evenodd" clip-rule="evenodd" d="M15 4.76229C15 2.8917 12.6611 2.04489 11.4636 3.48192L8.83147 6.64042C8.64148 6.86842 8.36003 7.00024 8.06325 7.00024L5 7.00024C3.34314 7.00024 2 8.34339 2 10.0002L2 14.0002C2 15.6571 3.34314 17.0002 5 17.0002L8.06325 17.0002C8.36003 17.0002 8.64148 17.1321 8.83147 17.3601L11.4636 20.5186C12.6611 21.9556 15 21.1088 15 19.2382L15 4.76229ZM10.3679 7.92079L13 4.76229L13 19.2382L10.3679 16.0797C9.79793 15.3957 8.95359 15.0002 8.06325 15.0002L5 15.0002C4.44771 15.0002 4 14.5525 4 14.0002L4 10.0002C4 9.44795 4.44771 9.00024 5 9.00024L8.06325 9.00024C8.95359 9.00024 9.79793 8.60477 10.3679 7.92079ZM17.1684 5.4449C17.4751 4.98561 18.0961 4.86193 18.5554 5.16864C20.6499 6.56742 22 9.13143 22 12.0003C22 14.8691 20.6499 17.4331 18.5554 18.8319C18.0961 19.1386 17.4751 19.0149 17.1684 18.5556C16.8617 18.0963 16.9854 17.4754 17.4446 17.1686C18.9369 16.1721 20 14.2591 20 12.0003C20 9.74139 18.9369 7.82839 17.4446 6.83187C16.9854 6.52515 16.8617 5.90418 17.1684 5.4449ZM16.1684 9.4449C16.4751 8.98561 17.0961 8.86193 17.5554 9.16864C18.4543 9.76899 19 10.8407 19 12.0003C19 13.1599 18.4543 14.2315 17.5554 14.8319C17.0961 15.1386 16.4751 15.0149 16.1684 14.5556C15.8617 14.0963 15.9854 13.4754 16.4446 13.1686C16.7413 12.9706 17 12.5499 17 12.0003C17 11.4506 16.7413 11.03 16.4446 10.8319C15.9854 10.5252 15.8617 9.90418 16.1684 9.4449Z" fill="white"/>
</svg>
