<svg viewBox="0 0 24 24" fill="none" xmlns="http://www.w3.org/2000/svg">
    <path fill-rule="evenodd" clip-rule="evenodd" d="M15 4.76205C15 2.89146 12.6611 2.04465 11.4636 3.48168L8.83147 6.64019C8.64148 6.86818 8.36003 7 8.06325 7L5 7C3.34314 7 2 8.34315 2 10L2 14C2 15.6569 3.34314 17 5 17L8.06325 17C8.36003 17 8.64148 17.1318 8.83147 17.3598L11.4636 20.5183C12.6611 21.9554 15 21.1085 15 19.238L15 4.76205ZM10.3679 7.92056L13 4.76205L13 19.238L10.3679 16.0795C9.79793 15.3955 8.95359 15 8.06325 15L5 15C4.44771 15 4 14.5523 4 14L4 10C4 9.44772 4.44771 9 5 9L8.06325 9C8.95359 9 9.79793 8.60454 10.3679 7.92056ZM17.1684 5.44466C17.4751 4.98537 18.0961 4.86169 18.5554 5.16841C20.6499 6.56718 22 9.13119 22 12C22 14.8688 20.6499 17.4329 18.5554 18.8316C18.0961 19.1383 17.4751 19.0147 17.1684 18.5554C16.8617 18.0961 16.9854 17.4751 17.4446 17.1684C18.9369 16.1719 20 14.2589 20 12C20 9.74115 18.9369 7.82816 17.4446 6.83163C16.9854 6.52491 16.8617 5.90395 17.1684 5.44466ZM16.1684 9.44466C16.4751 8.98537 17.0961 8.86169 17.5554 9.16841C18.4543 9.76875 19 10.8404 19 12C19 13.1596 18.4543 14.2313 17.5554 14.8316C17.0961 15.1383 16.4751 15.0147 16.1684 14.5554C15.8617 14.0961 15.9854 13.4751 16.4446 13.1684C16.7413 12.9703 17 12.5497 17 12C17 11.4504 16.7413 11.0297 16.4446 10.8316C15.9854 10.5249 15.8617 9.90395 16.1684 9.44466Z" fill="currentColor"/>
</svg>
